<!-- icon666.com - MILLIONS OF FREE VECTOR ICONS --><svg id="Capa_1" enable-background="new 0 0 512 512" viewBox="0 0 512 512" xmlns="http://www.w3.org/2000/svg"><path d="m77.13 141.925c10.011-7.94 22.799-16.908 37.115-24.208 8.837-4.506 18.116-8.214 27.767-10.561 15.135-3.68 60.063-9.974 59.303 16.328-.206 7.135-6.217 12.813-12.562 15.23-6.55 2.495-13.742 2.445-20.739 2.855-21.398 1.252-40.693 6.92-60.117 15.578-20.057 8.94-40.985 20.711-52.91 39.862-6.076 9.758-5.625 22.754-4.876 33.788 1.174 17.299 22.049 25.33 34.523 13.3 26.422-25.481 71.695-61.469 122.299-68.468 7.084-.98 13.325 4.785 12.98 11.967-.216 4.491-3.173 8.401-7.31 10.16-23.809 10.121-101.14 45.556-136.262 92.56-7.668 10.262-10.678 23.263-8.324 35.856 1.328 7.105 3.187 15.698 5.68 24.484 4.624 16.297 25.772 20.687 36.503 7.579 17.134-20.929 46.228-49.425 91.224-73.323 11.426-6.068 25.398 1.488 26.423 14.479.574 7.271-3.491 14.117-9.943 17.517-29.999 15.809-108.185 63.249-79.084 115.185 5.596 9.986 12.822 17 22.662 23.254 6.481 4.118 13.365 7.586 20.402 10.645 6.574 2.858 13.311 5.314 20.101 7.607 18.466 6.237 36.174 17.769 47.179 34.099.143.211.295.452.456.717 2.902 4.782 9.855 4.782 12.757 0 .161-.265.313-.506.456-.717 11.004-16.329 28.713-27.862 47.179-34.099 6.789-2.293 13.526-4.75 20.101-7.607 7.037-3.059 13.922-6.526 20.402-10.645 9.839-6.253 17.066-13.267 22.662-23.254 29.101-51.936-49.085-99.376-79.084-115.185-6.452-3.4-10.517-10.246-9.943-17.517 1.026-12.991 14.997-20.548 26.423-14.479 44.996 23.898 74.091 52.394 91.225 73.323 10.731 13.108 31.878 8.719 36.502-7.578 2.494-8.789 4.353-17.384 5.681-24.49 2.353-12.589-.656-25.584-8.321-35.844-35.12-47.006-112.455-82.444-136.266-92.565-4.138-1.759-7.096-5.67-7.311-10.161-.344-7.182 5.897-12.946 12.98-11.966 50.604 6.999 95.877 42.987 122.299 68.468 12.474 12.03 33.349 3.999 34.524-13.3.749-11.034 1.2-24.03-4.876-33.788-11.925-19.151-32.853-30.922-52.91-39.862-19.423-8.658-38.718-14.326-60.117-15.578-6.997-.41-14.189-.36-20.739-2.855-6.345-2.417-12.356-8.095-12.562-15.23-.76-26.302 44.168-20.008 59.303-16.328 9.651 2.347 18.93 6.054 27.767 10.561 14.318 7.301 27.106 16.27 37.118 24.211 10.805 8.57 26.709.577 26.35-13.209-.223-8.548-1.209-17.204-2.647-25.588-8.667-50.537-47.039-91.353-97.386-101.065-25.865-4.99-46.45-.372-62.303 7.783-26.993 13.885-58.78 13.885-85.773 0-15.851-8.157-36.436-12.775-62.301-7.785-50.347 9.712-88.719 50.528-97.386 101.065-1.438 8.383-2.424 17.039-2.647 25.587-.359 13.788 15.547 21.778 26.353 13.207z" fill="#47a920"></path><path d="m461.892 230.802c-1.183 17.296-22.049 25.321-34.53 13.293-26.422-25.475-71.693-61.466-122.294-68.462-7.089-.988-13.324 4.784-12.985 11.966.216 4.486 3.169 8.396 7.315 10.155 23.809 10.124 101.14 45.559 136.267 92.57 7.665 10.258 10.67 23.253 8.313 35.847-1.327 7.099-3.179 15.701-5.68 24.488-4.62 16.298-25.774 20.681-36.505 7.573-17.131-20.928-46.228-49.418-91.222-73.319-11.421-6.07-25.393 1.492-26.422 14.476-.576 7.274 3.488 14.117 9.939 17.522 30.002 15.804 108.188 63.246 79.091 115.185-5.597 9.98-12.82 16.997-22.667 23.253-6.482 4.116-13.365 7.583-20.403 10.639-6.575 2.86-13.304 5.319-20.094 7.614-18.469 6.235-36.176 17.769-47.185 34.098-.144.206-.288.453-.453.72-2.901 4.774-9.857 4.774-12.758 0-.165-.267-.309-.514-.453-.72-1.44-2.129-2.983-4.177-4.639-6.142-.147-.175 17.45-17.145 18.875-18.288 8.185-6.563 17.045-12.285 26.399-17.038 30.483-15.488 79.387-29.56 63.336-74.448-8.272-23.132-26.659-34.087-47.423-44.809-10.113-5.222-20.418-10.589-28.324-18.775-11.047-11.439-14.546-27.725-7.457-42.23 5.476-11.201 17.358-21.494 30.323-21.448 4.456.016 9.053.172 13.435 1.056 9.932 2.007 18.849 7.592 26.809 13.861 14.343 11.297 29.232 21.93 44.008 32.769 5.494 4.044 20.886 18.407 27.513 15.866 16.493-6.328 8.036-27.42.319-37.75-8.695-11.64-18.976-22.181-31.369-29.827-25.754-15.891-52.509-30.159-80.055-42.69-7.604-3.459-15.376-6.853-21.813-12.176-5.389-4.457-10.496-10.806-10.7-18.122-.298-10.744 5.992-20.75 15.587-25.482 12.269-6.05 31.62-.814 43.894 3.252 3.425 1.135 6.85 2.269 10.275 3.404 19.622 6.5 37.967 16.284 55.345 27.381 8.712 5.564 17.219 11.456 25.59 17.52 6.24 4.52 15.487 12.634 22.849 6.46 4.882-4.094 1.706-13.923-1.229-18.261-4.144-6.127-10.098-11.487-16.329-15.432-10.5-6.647-22.651-10.092-34.563-13.633-12.929-3.844-25.796-7.897-38.593-12.159-9.546-3.179-19.394-4.54-28.858-7.645-16.006-5.253-32.562-19.659-29.814-38.134 2.481-16.68 20.626-28.899 36.373-30.871 18.532-2.32 37.034 3.867 54.646 8.566 5.67 1.513 10.547 4.699 16.055 6.788 7.378 2.799 13.607 7.265 21.822 8.082 21.387 2.127 11.158-20.717 6.083-31.386-5.368-11.285-11.835-22.972-19.899-32.599-17.789-21.205-42.565-36.042-69.769-41.29-3.097-.597-6.122-1.06-9.065-1.379 9.713-1.183 20.495-.916 32.39 1.379 50.344 9.713 88.711 50.529 97.385 101.058 1.43 8.386 2.418 17.039 2.644 25.589.36 13.787-15.547 21.782-26.35 13.211-10.011-7.943-22.8-16.905-37.122-24.21-8.838-4.507-18.109-8.211-27.76-10.556-15.135-3.683-60.067-9.98-59.305 16.329.206 7.13 6.214 12.81 12.563 15.228 6.544 2.49 13.736 2.438 20.732 2.85 21.401 1.255 40.693 6.924 60.118 15.577 20.063 8.941 40.991 20.712 52.916 39.87 6.071 9.751 5.619 22.746 4.878 33.786z" fill="#409617"></path><g fill="#fee8c7"><ellipse cx="217.931" cy="391.135" rx="33.953" ry="18.52" transform="matrix(.651 -.759 .759 .651 -220.833 301.878)"></ellipse><ellipse cx="358.877" cy="53.885" rx="18.52" ry="26.713" transform="matrix(.363 -.932 .932 .363 178.299 368.667)"></ellipse></g></svg>