<!-- icon666.com - MILLIONS OF FREE VECTOR ICONS --><svg version="1.1" id="Capa_1" xmlns="http://www.w3.org/2000/svg" xmlns:xlink="http://www.w3.org/1999/xlink" x="0px" y="0px" viewBox="0 0 512 512" style="enable-background:new 0 0 512 512;" xml:space="preserve"><path style="fill:#7CB777;" d="M312.815,367.662c-10.215,7.576-12.357,22.003-4.774,32.225 c14.279,19.249,27.937,39.541,39.413,57.34c2.341,3.63,1.103,8.514-2.722,10.522c-15.188,7.972-30.389,13.916-45.325,17.934 c-3.076,0.827-6.335-0.411-8.084-3.073c-10.535-16.037-22.507-33.527-35.075-50.464c-7.576-10.215-22.019-12.357-32.233-4.782 c-10.224,7.584-12.357,22.019-4.774,32.242c4.541,6.123,9.022,12.356,13.391,18.579c3.776,5.379-0.869,12.677-7.336,11.507 c-40.755-7.382-74.268-31.601-92.305-69.66c-5.279-11.143-19.941-13.816-28.584-5.026c-16.691,16.968-38.823,46.122-46.57,86.796 c0,0-38.286,2.444-57.836-34.49c0,0,29.081-56.387,83.659-80.678c4.692-2.085,7.755-6.696,7.755-11.844v-0.456 c0-4.399-2.256-8.448-5.931-10.866c-24.129-15.942-40.925-37.653-49.293-63.102c-2.229-6.781,5.453-12.502,11.276-8.375 c5.06,3.586,10.11,7.24,15.093,10.935c10.224,7.584,24.657,5.45,32.242-4.774c7.576-10.215,5.433-24.658-4.782-32.233 c-17.337-12.854-35.244-25.097-51.581-35.8c-2.655-1.739-3.9-4.978-3.093-8.047c3.878-14.727,9.938-29.89,18.303-45.254 c2.044-3.754,6.869-4.95,10.464-2.636c17.998,11.587,38.627,25.447,58.165,39.943c10.224,7.584,24.65,5.441,32.225-4.774 c7.584-10.224,5.45-24.658-4.766-32.233c-19.82-14.7-40.395-28.606-58.515-40.322c-3.761-2.432-4.517-7.643-1.573-11.02 c5.312-6.091,10.998-12.178,17.062-18.241c9.959-9.959,21.203-18.915,33.427-26.97c3.155-2.079,7.38-1.431,9.771,1.495 c13.906,17.016,29.85,37.339,44.476,57.97c0.668,0.945,1.409,1.816,2.199,2.606c6.826,6.826,17.783,7.943,25.912,2.175 c9.083-6.444,11.225-19.03,4.782-28.112c-12.847-18.103-26.486-35.786-38.991-51.351c-3.094-3.851-1.585-9.562,2.978-11.451 c13.543-5.61,27.639-10.511,42.032-14.792c2.814-0.838,5.857,0.093,7.74,2.346c15.914,19.035,36.508,44.642,55.01,70.721 c0.676,0.936,1.409,1.816,2.199,2.606c6.826,6.826,17.775,7.934,25.904,2.166c9.083-6.444,11.225-19.03,4.782-28.112 c-13.097-18.455-27.01-36.485-39.707-52.261c-3.491-4.338-1.095-10.853,4.378-11.876c13.918-2.601,27.791-4.754,41.409-6.538 c2.91-0.381,5.761,1.009,7.271,3.525c11.01,18.346,23.338,39.842,34.441,61.438c0.839,1.637,1.914,3.087,3.152,4.326 c5.164,5.164,13.262,6.663,20.12,3.144c8.48-4.358,11.827-14.777,7.462-23.265c-7.7-14.983-15.884-29.784-23.824-43.556 c-2.726-4.729,0.455-10.661,5.9-11.045c54.393-3.829,98.399-2.434,114.559-1.674c3.802,0.179,6.839,3.216,7.018,7.018 c0.759,16.16,2.154,60.167-1.674,114.559c-0.383,5.445-6.316,8.626-11.045,5.9c-13.772-7.94-28.573-16.124-43.556-23.824 c-8.488-4.366-18.907-1.018-23.265,7.462c-3.519,6.859-2.02,14.956,3.144,20.12c1.238,1.238,2.688,2.314,4.326,3.152 c21.595,11.104,43.091,23.431,61.438,34.441c2.517,1.51,3.906,4.361,3.525,7.271c-1.782,13.618-3.936,27.491-6.538,41.409 c-1.023,5.473-7.538,7.87-11.876,4.378c-15.776-12.697-33.806-26.61-52.261-39.707c-9.083-6.444-21.669-4.301-28.112,4.782 c-5.767,8.13-4.66,19.078,2.166,25.904c0.79,0.79,1.67,1.524,2.606,2.199c26.08,18.502,51.687,39.095,70.721,55.01 c2.253,1.883,3.183,4.925,2.346,7.74c-4.281,14.394-9.183,28.489-14.792,42.032c-1.89,4.564-7.602,6.072-11.451,2.978 c-15.565-12.505-33.248-26.144-51.351-38.991c-9.083-6.444-21.669-4.301-28.112,4.782c-5.767,8.13-4.651,19.086,2.175,25.912 c0.79,0.79,1.662,1.532,2.606,2.199c20.631,14.627,40.954,30.57,57.97,44.476c2.926,2.391,3.574,6.616,1.495,9.771 c-8.055,12.225-17.011,23.469-26.97,33.427c-6.049,6.049-12.174,11.716-18.352,17.013c-3.382,2.899-8.555,2.126-10.974-1.614 c-11.703-18.097-25.579-38.637-40.258-58.427C337.472,362.213,323.037,360.079,312.815,367.662z"></path><g><path style="fill:#35925D;" d="M482.247,129.385c5.501,3.057,10.9,6.118,16.149,9.144c4.729,2.726,10.661-0.455,11.045-5.9 c3.828-54.393,2.434-98.399,1.674-114.558c-0.178-3.802-3.216-6.839-7.018-7.018c-4.07-0.192-9.91-0.423-17.234-0.602 C487.689,37.098,487.635,80.151,482.247,129.385z"></path><path style="fill:#35925D;" d="M166.011,462.728c16.662,13.744,36.875,22.905,59.286,26.964c6.466,1.171,11.112-6.129,7.336-11.507 c-3.544-5.048-7.174-10.088-10.838-15.084C204.358,464.453,185.785,464.38,166.011,462.728z"></path><path style="fill:#35925D;" d="M299.407,485.684c14.936-4.019,30.137-9.962,45.325-17.934c3.825-2.008,5.062-6.891,2.722-10.522 c-5.446-8.445-11.386-17.455-17.647-26.646c-17.234,10.106-36.323,18.248-57.469,23.967c6.679,9.575,13.065,19.049,18.985,28.062 C293.072,485.274,296.331,486.512,299.407,485.684z"></path><path style="fill:#35925D;" d="M396.279,432.469c6.178-5.297,12.303-10.964,18.352-17.013c9.959-9.959,18.915-21.203,26.97-33.427 c2.079-3.155,1.431-7.38-1.495-9.771c-8.551-6.988-17.935-14.49-27.776-22.081c-12.833,19.565-27.815,37.561-45.291,53.195 c6.489,9.489,12.631,18.77,18.265,27.483C387.725,434.595,392.898,435.368,396.279,432.469z"></path><path style="fill:#35925D;" d="M468.27,330.899c5.61-13.543,10.511-27.639,14.792-42.032c0.838-2.814-0.093-5.857-2.346-7.74 c-7.674-6.416-16.429-13.598-25.84-21.093c-6.233,18.725-13.623,37.142-22.373,54.79c8.481,6.472,16.656,12.9,24.314,19.053 C460.669,336.971,466.381,335.463,468.27,330.899z"></path><path style="fill:#35925D;" d="M504.008,187.153c0.381-2.91-1.009-5.761-3.526-7.271c-7.292-4.376-15.087-8.961-23.182-13.593 c-2.719,17.017-6.136,34.433-10.408,51.884c6.489,5.022,12.757,9.981,18.704,14.768c4.338,3.491,10.853,1.095,11.876-4.378 C500.072,214.643,502.226,200.771,504.008,187.153z"></path></g><g><path style="fill:#3A484A;" d="M200.661,208.466c-1.977,0-3.955-0.754-5.463-2.262c-3.018-3.017-3.018-7.91-0.001-10.927 l10.927-10.928c3.018-3.017,7.911-3.017,10.926,0c3.018,3.017,3.018,7.91,0.001,10.927l-10.927,10.928 C204.616,207.711,202.638,208.466,200.661,208.466z"></path><path style="fill:#3A484A;" d="M321.428,329.234c-1.977,0-3.955-0.754-5.464-2.263c-3.017-3.017-3.017-7.91,0-10.926l10.928-10.928 c3.018-3.017,7.91-3.017,10.927,0c3.017,3.017,3.017,7.91,0,10.926l-10.928,10.928 C325.383,328.479,323.405,329.234,321.428,329.234z"></path><path style="fill:#3A484A;" d="M274.947,283.052c-9.295,0-18.371-3.803-25.2-10.631c-7.384-7.384-11.231-17.4-10.555-27.478 c0.286-4.257,3.977-7.489,8.226-7.191c4.258,0.285,7.478,3.969,7.192,8.226c-0.378,5.629,1.832,11.285,6.065,15.517 c4.231,4.232,9.886,6.442,15.516,6.065c4.243-0.293,7.941,2.933,8.227,7.191c0.285,4.258-2.934,7.941-7.191,8.227 C276.466,283.027,275.706,283.052,274.947,283.052z"></path></g></svg>