<?xml version="1.0" encoding="UTF-8"?>
<svg width="100" height="100" viewBox="0 0 100 100" fill="none" xmlns="http://www.w3.org/2000/svg">
    <!-- Основная форма листа -->
    <path d="M50 5C35 5 15 25 15 50C15 75 35 95 50 95C65 95 85 75 85 50C85 25 65 5 50 5Z" 
          fill="#2B7A48" 
          fill-opacity="0.15"/>
    <!-- Прожилки листа -->
    <path d="M50 15C40 15 25 30 25 50C25 70 40 85 50 85" 
          stroke="#2B7A48" 
          stroke-width="1.5" 
          stroke-linecap="round"
          stroke-opacity="0.6"/>
    <path d="M50 15C60 15 75 30 75 50C75 70 60 85 50 85" 
          stroke="#2B7A48" 
          stroke-width="1.5" 
          stroke-linecap="round"
          stroke-opacity="0.6"/>
    <!-- Дополнительные прожилки -->
    <path d="M50 20C45 25 35 40 35 50M50 25C55 35 65 45 65 55" 
          stroke="#2B7A48" 
          stroke-width="0.8" 
          stroke-linecap="round"
          stroke-opacity="0.4"/>
    <!-- Блики -->
    <path d="M30 45C35 40 45 35 50 35" 
          stroke="#FFFFFF" 
          stroke-width="1" 
          stroke-linecap="round"
          stroke-opacity="0.2"/>
</svg> 