<?xml version="1.0" encoding="UTF-8"?>
<svg width="100" height="100" viewBox="0 0 100 100" fill="none" xmlns="http://www.w3.org/2000/svg">
    <!-- Основная форма листа -->
    <path d="M50 5C20 5 5 35 5 50C5 65 20 95 50 95C80 95 95 65 95 50C95 35 80 5 50 5Z" 
          fill="#2B7A48" 
          fill-opacity="0.12"/>
    <!-- Центральная жилка -->
    <path d="M50 15C30 15 15 35 15 50C15 65 30 85 50 85" 
          stroke="#2B7A48" 
          stroke-width="1.5" 
          stroke-linecap="round"
          stroke-opacity="0.5"/>
    <!-- Боковые прожилки -->
    <path d="M50 20C35 30 25 45 25 55M50 30C40 40 35 50 35 60M50 40C45 45 42 52 42 58" 
          stroke="#2B7A48" 
          stroke-width="0.8" 
          stroke-linecap="round"
          stroke-opacity="0.4"/>
    <path d="M50 20C65 30 75 45 75 55M50 30C60 40 65 50 65 60M50 40C55 45 58 52 58 58" 
          stroke="#2B7A48" 
          stroke-width="0.8" 
          stroke-linecap="round"
          stroke-opacity="0.4"/>
    <!-- Блики -->
    <path d="M35 35C40 32 45 30 50 30M65 35C60 32 55 30 50 30" 
          stroke="#FFFFFF" 
          stroke-width="1" 
          stroke-linecap="round"
          stroke-opacity="0.25"/>
</svg> 