<?xml version="1.0" encoding="UTF-8"?>
<svg width="100" height="100" viewBox="0 0 100 100" fill="none" xmlns="http://www.w3.org/2000/svg">
    <!-- Основная форма листа -->
    <path d="M50 5C35 5 5 20 5 50C5 80 35 95 50 95C65 95 95 80 95 50C95 20 65 5 50 5Z" 
          fill="#2B7A48" 
          fill-opacity="0.1"/>
    <!-- Основные прожилки -->
    <path d="M50 15C40 15 15 25 15 50C15 75 40 85 50 85" 
          stroke="#2B7A48" 
          stroke-width="1.5" 
          stroke-linecap="round"
          stroke-opacity="0.6"/>
    <path d="M50 15C60 15 85 25 85 50C85 75 60 85 50 85" 
          stroke="#2B7A48" 
          stroke-width="1.5" 
          stroke-linecap="round"
          stroke-opacity="0.6"/>
    <!-- Дополнительные прожилки -->
    <path d="M50 25C40 30 20 40 20 50M50 35C42 40 30 45 30 55M50 45C45 50 40 55 40 60" 
          stroke="#2B7A48" 
          stroke-width="0.8" 
          stroke-linecap="round"
          stroke-opacity="0.3"/>
    <path d="M50 25C60 30 80 40 80 50M50 35C58 40 70 45 70 55M50 45C55 50 60 55 60 60" 
          stroke="#2B7A48" 
          stroke-width="0.8" 
          stroke-linecap="round"
          stroke-opacity="0.3"/>
    <!-- Блики -->
    <path d="M25 45C35 35 45 30 50 30" 
          stroke="#FFFFFF" 
          stroke-width="1" 
          stroke-linecap="round"
          stroke-opacity="0.2"/>
    <path d="M75 45C65 35 55 30 50 30" 
          stroke="#FFFFFF" 
          stroke-width="1" 
          stroke-linecap="round"
          stroke-opacity="0.2"/>
</svg> 