<?xml version="1.0" standalone="no"?>
<!DOCTYPE svg PUBLIC "-//W3C//DTD SVG 20010904//EN"
 "http://www.w3.org/TR/2001/REC-SVG-20010904/DTD/svg10.dtd">
<svg version="1.0" xmlns="http://www.w3.org/2000/svg"
 width="667.000000pt" height="575.000000pt" viewBox="0 0 667.000000 575.000000"
 preserveAspectRatio="xMidYMid meet">

<g transform="translate(0.000000,575.000000) scale(0.100000,-0.100000)"
fill="#000000" stroke="none">
<path d="M2267 5743 c-4 -3 -7 -33 -7 -65 l0 -58 95 0 95 0 0 -524 0 -524 -42
4 -43 4 40 -13 40 -13 1 -124 c1 -93 0 -111 -6 -70 -4 30 -14 71 -23 92 -23
55 -87 113 -150 136 -68 26 -163 40 -153 23 4 -6 22 -11 40 -11 56 0 148 -38
189 -78 64 -61 85 -119 79 -214 -4 -53 -185 -162 -367 -221 -117 -38 -177 -52
-519 -123 -170 -35 -311 -65 -313 -68 -11 -11 11 -26 80 -54 121 -51 255 -73
477 -78 237 -6 296 -15 380 -61 79 -43 124 -84 151 -140 20 -41 20 -43 2 -80
-9 -21 -44 -63 -76 -95 -32 -32 -54 -58 -48 -58 13 0 99 83 129 125 l21 30 1
-46 c0 -64 -17 -107 -59 -153 -38 -41 -121 -86 -158 -86 -13 0 -23 -5 -23 -11
0 -7 12 -8 33 -4 86 19 155 66 194 133 25 43 27 52 27 186 1 137 0 142 -29
194 -60 109 -167 162 -330 162 -91 0 -305 -29 -305 -42 0 -10 15 -10 66 2 72
17 237 27 305 20 161 -17 279 -124 278 -250 l0 -45 -19 36 c-26 50 -101 114
-175 149 -74 36 -181 50 -375 50 -143 0 -234 10 -340 37 -65 16 -184 63 -177
69 2 2 64 16 138 30 107 21 180 28 364 34 189 6 243 12 303 29 172 50 318 161
367 279 8 17 16 32 19 32 4 0 6 -803 6 -1785 l0 -1784 -92 -3 -93 -3 -3 -63
-3 -62 931 0 930 0 0 775 0 775 -300 0 -300 0 0 -710 0 -710 -230 0 -230 0 0
2450 0 2450 95 0 95 0 0 65 0 65 -488 0 c-269 0 -492 -3 -495 -7z m493 -2573
l0 -2450 -80 0 -80 0 0 2443 c0 1344 3 2447 7 2450 3 4 39 7 80 7 l73 0 0
-2450z m-378 1038 c-28 -45 -133 -130 -209 -167 -105 -53 -199 -72 -378 -78
-88 -3 -158 -3 -155 0 3 3 71 20 150 37 255 56 450 129 555 208 52 40 62 39
37 0z m1428 -2843 l0 -645 -70 0 -70 0 0 645 0 645 70 0 70 0 0 -645z"/>
<path d="M6130 5715 l0 -35 50 0 50 0 0 -335 c0 -184 -2 -335 -4 -335 -2 0
-28 12 -58 28 -50 25 -61 27 -183 27 -111 0 -137 -3 -176 -21 -58 -27 -116
-85 -141 -141 -35 -79 -39 -198 -36 -911 4 -618 6 -692 21 -739 39 -117 128
-185 265 -202 112 -14 197 2 305 57 4 2 7 -8 7 -22 l0 -26 215 0 215 0 0 35 0
35 -55 0 -55 0 0 1310 0 1310 -210 0 -210 0 0 -35z m260 -1310 l0 -1275 -40 0
-40 0 0 1275 0 1275 40 0 40 0 0 -1275z m-545 559 c-14 -20 -29 -53 -35 -73
-14 -49 -14 -1613 0 -1662 6 -20 21 -53 35 -73 14 -20 25 -39 25 -42 0 -10
-76 35 -97 58 -12 13 -30 41 -40 63 -17 37 -18 93 -21 794 -2 516 1 771 8 807
13 63 43 110 89 141 51 35 65 29 36 -13z m339 2 l46 -27 0 -879 0 -880 -41
-27 c-47 -31 -130 -41 -169 -21 -14 7 -33 29 -42 48 -17 33 -18 95 -18 876 0
600 3 850 11 873 26 74 122 90 213 37z"/>
<path d="M670 5050 c-30 -12 -73 -26 -95 -32 -138 -35 -168 -52 -203 -118 -20
-38 -23 -56 -20 -115 5 -91 39 -165 108 -234 73 -73 76 -55 2 23 -69 74 -96
139 -96 227 1 103 65 174 176 196 l30 6 -28 -43 c-33 -50 -44 -146 -24 -219
18 -66 23 -42 9 43 -10 67 -10 81 5 120 23 61 61 96 101 96 71 0 167 -62 277
-178 124 -131 173 -245 207 -477 12 -77 24 -151 28 -165 l7 -25 7 25 c12 44
-1 459 -17 538 -29 140 -118 273 -216 323 -63 33 -184 37 -258 9z m222 -12
c56 -16 155 -114 191 -188 49 -102 59 -161 63 -365 3 -185 3 -188 -11 -120
-44 220 -73 294 -160 410 -78 103 -219 213 -309 240 -26 8 -15 16 41 31 52 15
118 12 185 -8z"/>
<path d="M3610 5056 c-143 -43 -228 -119 -271 -241 -16 -45 -19 -83 -19 -210
l0 -155 160 0 160 0 0 218 c0 228 6 270 41 308 46 49 144 38 180 -20 18 -29
19 -54 19 -387 l0 -356 -119 -7 c-307 -17 -426 -106 -452 -337 -16 -137 -6
-548 15 -616 36 -114 126 -186 255 -202 91 -12 188 1 252 33 l48 25 3 -22 c3
-22 6 -22 216 -25 l212 -2 0 35 0 35 -50 0 -49 0 -3 818 c-4 890 -1 854 -61
949 -35 56 -113 116 -184 144 -73 28 -280 37 -353 15z m344 -90 c17 -13 45
-48 61 -77 l30 -54 3 -852 3 -853 -46 0 -45 0 -2 893 -3 892 -22 38 c-26 43
-22 46 21 13z m-446 -57 c-20 -39 -22 -64 -26 -221 l-4 -178 -40 0 -40 0 4
153 c3 147 4 155 30 194 26 39 89 105 95 99 2 -1 -7 -22 -19 -47z m372 -1247
c0 -535 6 -494 -73 -527 -47 -20 -97 -19 -126 1 -49 35 -51 54 -51 490 0 359
2 410 17 441 23 48 78 72 166 73 l67 0 0 -478z m-383 391 c-21 -46 -22 -62
-25 -415 -3 -389 0 -418 43 -482 14 -20 25 -39 25 -42 0 -10 -76 35 -97 58
-54 57 -57 81 -61 400 -4 327 2 381 47 448 21 32 74 79 88 80 1 0 -8 -21 -20
-47z"/>
<path d="M4925 5061 c-16 -4 -49 -17 -72 -29 -53 -27 -53 -27 -53 3 l0 25
-212 -2 -213 -3 -3 -32 -3 -33 55 0 56 0 0 -930 0 -930 -56 0 -55 0 3 -32 3
-33 268 -3 267 -2 0 35 0 35 -55 0 -55 0 0 899 0 899 30 25 c90 76 213 54 240
-42 6 -23 10 -374 10 -943 l0 -908 210 0 210 0 0 35 0 35 -50 0 -49 0 -3 848
c-3 806 -4 850 -22 900 -26 71 -83 134 -148 163 -43 19 -73 23 -163 25 -60 2
-123 -1 -140 -5z m227 -87 c21 -15 47 -47 60 -73 l23 -46 3 -862 2 -863 -45 0
-45 0 -2 898 -3 897 -22 38 c-26 44 -22 46 29 11z m-512 -914 l0 -930 -40 0
-40 0 0 930 0 930 40 0 40 0 0 -930z"/>
<path d="M1938 5002 c89 -86 106 -213 48 -351 -15 -35 -25 -66 -22 -69 9 -8
55 103 67 160 22 99 -15 214 -88 279 -55 47 -58 33 -5 -19z"/>
<path d="M1595 5027 c-132 -44 -244 -142 -301 -260 -49 -105 -69 -195 -98
-457 -15 -129 -29 -242 -32 -252 -3 -9 0 -19 6 -23 5 -3 10 -2 10 3 0 5 13
123 30 263 30 258 41 319 80 422 56 150 207 275 357 295 118 16 201 -26 249
-125 24 -49 28 -71 29 -145 0 -54 4 -83 9 -78 15 15 10 133 -8 188 -24 70 -68
127 -118 153 -53 27 -156 34 -213 16z"/>
<path d="M1494 4790 c-86 -133 -171 -353 -240 -618 -36 -142 -38 -152 -26
-152 4 0 16 39 25 88 25 119 136 451 186 551 22 44 56 106 77 136 20 31 34 58
31 62 -3 3 -27 -27 -53 -67z"/>
<path d="M195 4586 c-128 -41 -185 -115 -186 -242 -1 -119 67 -215 196 -275
76 -36 150 -52 370 -79 159 -20 414 -65 424 -75 2 -3 -18 -5 -45 -5 -129 0
-399 -23 -486 -40 -140 -29 -215 -66 -297 -147 -53 -52 -74 -82 -90 -126 -33
-90 -25 -171 24 -246 13 -20 27 -48 30 -62 10 -41 62 -97 114 -123 51 -26 131
-43 131 -28 0 5 -20 12 -45 15 -76 11 -142 53 -171 109 -20 38 -19 39 28 18
57 -24 248 -33 248 -11 0 5 -35 7 -80 4 -90 -7 -152 7 -196 42 -28 23 -28 23
-18 86 22 124 83 210 211 297 182 124 340 175 591 191 123 9 153 14 141 25
-11 11 -238 98 -290 111 -32 9 -132 26 -221 39 -219 33 -307 67 -363 140 -28
37 -42 98 -31 140 7 30 38 61 86 86 25 14 30 19 16 20 -53 1 -126 -87 -126
-151 0 -58 63 -144 132 -180 57 -29 171 -57 308 -74 69 -9 157 -25 196 -36 73
-20 209 -74 164 -65 -107 21 -281 49 -420 66 -213 27 -305 52 -382 103 -173
115 -185 334 -23 430 43 26 61 30 125 31 41 1 87 -3 103 -8 17 -5 27 -4 27 2
0 5 -28 15 -63 21 -76 13 -81 13 -132 -3z m435 -735 c-139 -46 -276 -124 -377
-215 -63 -57 -110 -146 -121 -231 l-9 -60 -21 45 c-27 55 -29 137 -5 206 21
64 117 161 198 201 95 48 238 79 370 81 l50 1 -85 -28z"/>
<path d="M1760 4343 c-162 -182 -335 -317 -472 -368 -27 -10 -48 -22 -48 -26
0 -13 5 -12 85 25 127 59 221 131 383 294 139 141 166 173 145 172 -5 -1 -46
-44 -93 -97z"/>
<path d="M739 4241 c70 -88 156 -155 279 -219 68 -35 126 -61 129 -58 9 8 10
7 -100 61 -121 58 -197 114 -267 194 -58 67 -90 85 -41 22z"/>
<path d="M1098 3843 c-76 -115 -88 -164 -98 -388 -10 -219 -24 -268 -101 -340
-65 -61 -108 -78 -191 -78 -184 0 -257 140 -171 326 18 37 28 67 23 67 -11 0
-55 -93 -70 -149 -25 -92 15 -192 92 -233 58 -31 193 -33 251 -4 51 25 119 94
146 148 l21 43 -6 -60 c-17 -179 -71 -272 -187 -320 -43 -18 -125 -20 -179 -3
-43 13 -110 76 -129 120 -6 15 -15 28 -20 28 -15 0 -10 -13 29 -70 65 -94 174
-130 288 -94 78 24 152 96 182 177 25 67 42 249 42 459 0 75 5 161 11 190 11
51 56 145 86 180 8 9 13 22 11 29 -2 6 -15 -6 -30 -28z"/>
<path d="M1170 3874 c0 -4 14 -36 32 -73 43 -90 166 -212 264 -264 40 -20 80
-37 90 -36 11 0 -5 11 -35 25 -132 59 -260 181 -308 291 -15 34 -31 63 -35 63
-5 0 -8 -3 -8 -6z"/>
<path d="M1001 3813 c-35 -21 -96 -68 -135 -104 -76 -71 -169 -183 -160 -192
4 -3 32 27 63 66 68 86 162 169 249 221 34 21 62 39 62 42 0 10 -19 2 -79 -33z"/>
<path d="M1230 3656 c0 -48 47 -233 82 -323 69 -179 204 -354 318 -414 65 -34
205 -34 270 -1 62 32 103 74 133 135 30 61 45 127 28 127 -6 0 -11 -12 -11
-27 0 -73 -88 -190 -169 -226 -66 -29 -170 -28 -234 3 -169 80 -325 337 -386
634 -19 94 -31 129 -31 92z"/>
<path d="M1146 3584 c-5 -14 -4 -15 9 -4 17 14 19 20 6 20 -5 0 -12 -7 -15
-16z"/>
<path d="M1249 3193 c-13 -16 -12 -17 4 -4 9 7 17 15 17 17 0 8 -8 3 -21 -13z"/>
<path d="M1143 3176 c14 -31 23 -33 30 -6 3 11 1 17 -4 14 -6 -3 -16 -1 -24 6
-12 10 -12 7 -2 -14z"/>
<path d="M1184 3118 c22 -33 22 -33 22 -8 0 10 -2 17 -5 15 -2 -3 -11 1 -19 8
-11 9 -11 4 2 -15z"/>
<path d="M1114 3108 c0 -10 1 -18 3 -18 1 0 7 8 12 18 7 13 6 19 -2 19 -7 0
-13 -9 -13 -19z"/>
<path d="M1147 3073 c3 -7 6 -13 8 -13 1 0 7 6 13 13 8 10 6 13 -7 13 -11 0
-17 -6 -14 -13z"/>
<path d="M1014 3029 c-3 -6 2 -18 12 -27 17 -16 17 -16 5 0 -7 9 -10 22 -6 28
3 5 4 10 1 10 -3 0 -8 -5 -12 -11z"/>
<path d="M1289 3003 c-13 -16 -12 -17 4 -4 9 7 17 15 17 17 0 8 -8 3 -21 -13z"/>
<path d="M1117 2882 c-18 -20 -23 -57 -9 -66 5 -3 7 8 4 23 -3 21 2 33 19 45
13 9 19 16 13 16 -6 0 -18 -8 -27 -18z"/>
<path d="M1208 2837 c-3 -19 -2 -25 4 -19 6 6 8 18 6 28 -3 14 -5 12 -10 -9z"/>
<path d="M1534 2760 c-57 -8 -137 -41 -150 -61 -6 -10 -10 -6 -14 16 l-5 30
-208 3 -207 2 0 -40 0 -40 50 0 50 0 0 -1300 0 -1300 -50 0 -50 0 0 -35 0 -35
260 0 260 0 0 35 0 35 -50 0 -50 0 0 287 c0 272 1 285 18 271 57 -50 179 -75
286 -58 128 20 203 78 249 190 l22 55 0 850 0 850 -22 55 c-46 113 -123 171
-250 190 -37 5 -72 9 -78 9 -5 -1 -33 -5 -61 -9z m63 -112 l28 -29 3 -942 c2
-904 1 -943 -16 -977 -36 -67 -131 -73 -209 -14 l-33 25 0 954 0 954 33 25
c36 28 96 44 138 38 15 -2 40 -17 56 -34z m119 0 c78 -69 74 -7 74 -983 0
-820 -1 -872 -19 -910 -16 -36 -97 -122 -107 -113 -2 2 7 24 19 49 l22 44 0
930 c0 928 0 930 -21 973 -26 50 -17 53 32 10z m-506 -1279 l0 -1300 -42 3
-43 3 -3 1298 -2 1297 45 0 45 0 0 -1301z"/>
<path d="M4915 2764 c-125 -15 -186 -40 -263 -109 -99 -90 -131 -196 -132
-442 l0 -123 160 0 160 0 0 238 c0 138 5 253 11 276 16 56 52 86 106 86 59 0
81 -13 104 -63 17 -39 19 -71 19 -418 l0 -377 -102 -6 c-129 -9 -199 -22 -264
-51 -106 -47 -174 -139 -194 -265 -13 -85 -13 -586 1 -669 30 -187 138 -276
334 -274 84 1 145 18 196 53 l29 21 0 -30 0 -31 210 0 210 0 0 40 0 40 -50 0
-50 0 0 838 c0 470 -5 869 -10 910 -23 176 -136 306 -295 340 -62 13 -140 20
-180 16z m249 -135 c80 -89 76 -35 76 -1061 l0 -908 -40 0 -40 0 0 918 c0 946
-2 1004 -40 1070 -28 47 -8 39 44 -19z m-456 -50 c-17 -46 -21 -82 -26 -236
l-5 -183 -39 0 -40 0 4 153 c3 129 7 159 25 198 19 43 91 134 99 126 2 -2 -6
-28 -18 -58z m372 -1348 l0 -520 -32 -25 c-83 -62 -171 -52 -201 23 -15 36
-17 95 -17 484 0 408 2 445 19 483 25 54 66 73 159 74 l72 0 0 -519z m-373
442 c-32 -61 -37 -134 -37 -491 0 -382 7 -445 50 -504 12 -16 20 -32 17 -35
-9 -9 -64 26 -91 57 -53 63 -57 104 -54 497 l3 358 27 52 c24 44 86 108 96 98
2 -2 -3 -16 -11 -32z"/>
<path d="M6140 2759 c-30 -5 -78 -23 -107 -39 l-53 -30 0 30 0 30 -210 0 -210
0 0 -40 0 -40 55 0 55 0 0 -1005 0 -1005 -55 0 -55 0 0 -40 0 -40 263 2 262 3
0 35 0 35 -52 3 -53 3 0 978 0 978 38 26 c77 54 164 51 206 -6 21 -28 21 -31
24 -1043 l2 -1014 210 0 210 0 0 40 0 40 -50 0 -50 0 0 868 c0 486 -5 900 -10
942 -18 143 -99 251 -208 279 -61 16 -154 20 -212 10z m200 -117 c73 -72 70
-34 70 -1064 l0 -918 -40 0 -40 0 0 908 c0 507 -5 939 -10 979 -5 40 -16 86
-25 103 -22 42 -1 39 45 -8z m-510 -977 l0 -1005 -45 0 -45 0 0 1005 0 1005
45 0 45 0 0 -1005z"/>
</g>
</svg>
