<?xml version="1.0" encoding="UTF-8"?>
<svg width="24" height="24" viewBox="0 0 24 24" fill="none" xmlns="http://www.w3.org/2000/svg">
    <path d="M20.5 3.5C18.2 1.2 15.2 0 12 0C5.4 0 0 5.4 0 12C0 14.1 0.6 16.1 1.7 17.9L0 24L6.3 22.3C8 23.3 10 23.9 12 23.9C18.6 23.9 24 18.5 24 11.9C24 8.7 22.8 5.8 20.5 3.5ZM12 21.9C10.2 21.9 8.5 21.3 7 20.3L6.7 20.1L2.9 21.1L3.9 17.4L3.7 17.1C2.6 15.5 2 13.8 2 12C2 6.5 6.5 2 12 2C14.7 2 17.2 3 19.1 4.9C21 6.8 22 9.3 22 12C22 17.5 17.5 21.9 12 21.9ZM17.4 14.5C17.1 14.4 15.7 13.7 15.4 13.6C15.1 13.5 14.9 13.5 14.7 13.8C14.5 14.1 13.9 14.7 13.7 14.9C13.5 15.1 13.4 15.1 13.1 15C12.8 14.9 11.9 14.6 10.9 13.7C10.1 13 9.5 12.1 9.4 11.8C9.2 11.5 9.4 11.3 9.5 11.2C9.6 11.1 9.8 10.9 9.9 10.7C10 10.5 10.1 10.4 10.2 10.2C10.3 10 10.2 9.8 10.1 9.7C10 9.6 9.5 8.2 9.2 7.6C9 7 8.7 7.1 8.5 7.1H8.1C7.9 7.1 7.6 7.2 7.3 7.5C7 7.8 6.3 8.5 6.3 9.9C6.3 11.3 7.3 12.7 7.4 12.9C7.5 13.1 9.5 16.1 12.4 17.3C13.1 17.6 13.6 17.8 14 17.9C14.7 18.1 15.3 18.1 15.8 18C16.3 17.9 17.5 17.3 17.7 16.6C18 15.9 18 15.3 17.9 15.2C17.8 15.1 17.6 15 17.4 14.5Z" fill="currentColor"/>
</svg> 